<?xml version="1.0" encoding="UTF-8"?>
<svg xmlns="http://www.w3.org/2000/svg" id="Ebene_1" width="61.1723mm" height="49.5368mm" viewBox="0 0 173.4019 140.4193">
  <path d="M27.4424,26.0453c-3.6435,0-7.0734.6347-10.2911,1.904V8.513c0-2.5411-.8063-4.5953-2.4147-6.1626-1.6093-1.5655-3.6836-2.3504-6.2246-2.3504S3.9163.7848,2.3499,2.3504C.7811,3.9177,0,5.9719,0,8.513v63.8508c0,4.7362,3.8395,8.5757,8.5757,8.5757s8.5757-3.8395,8.5757-8.5757v-19.0034c0-2.8777.9937-5.2924,2.985-7.2412,1.9282-1.8868,4.2742-2.8614,7.0387-2.9201,2.7956-.0593,5.4987,1.0251,7.4697,3.0085,1.9728,1.9852,2.9619,4.3701,2.9619,7.1528l.0674,19.0035c.0169,4.7468,3.8738,8.5835,8.6205,8.5756,4.7474-.008,8.5916-3.8587,8.5916-8.6061v-18.973c0-7.7067-2.6488-14.1849-7.9408-19.4387-5.2957-5.2514-11.7964-7.8764-19.5031-7.8764Z"></path>
  <path d="M89.1872,26.0453c-7.709,0-14.2087,2.625-19.5031,7.8764-5.2948,5.2537-7.9408,11.732-7.9408,19.4387v19.0027c0,4.7366,3.8398,8.5764,8.5764,8.5764h0c4.7366,0,8.5764-3.8398,8.5764-8.5764v-19.0027c0-2.8777.9951-5.2924,2.9855-7.2412,1.9268-1.8854,4.2718-2.8604,7.0331-2.9201,2.7984-.0604,5.5048,1.0262,7.4774,3.0121,1.9713,1.9846,2.9598,4.3683,2.9598,7.1492l.0656,19.0029c.0164,4.7469,3.8734,8.5841,8.6203,8.5762,4.7469-.008,8.5909-3.8581,8.5914-8.605l.0019-18.9741c0-7.7067-2.6483-14.1849-7.9403-19.4387-5.2948-5.2514-11.7964-7.8764-19.5036-7.8764Z"></path>
  <path d="M145.4945,80.9441c3.2366-.0025,6.1986-1.8194,7.6677-4.7034l19.4084-38.0999c2.128-4.4257.0158-9.7248-4.5732-11.4732h0c-4.1864-1.595-8.8873.3813-10.6764,4.4886l-11.8492,24.8433-11.8339-24.8875c-1.7847-4.1102-6.4862-6.09-10.6735-4.4947h0c-4.5868,1.7475-6.6975,7.0444-4.5696,11.4675l19.417,38.153c1.4708,2.8899,4.44,4.7089,7.6827,4.7063h0Z"></path>
  <path d="M113.8558,91.8882c-1.1015-2.0462-2.9343-3.5411-5.1607-4.2092-4.5978-1.3805-9.4565,1.2378-10.8355,5.8336-5.1967,17.3256-21.4748,29.4583-39.5859,29.5041h-.1027c-12.2847,0-23.8623-5.4041-31.764-14.8285-1.4915-1.7813-3.5883-2.8749-5.9037-3.0785-2.3169-.2104-4.5729.5064-6.3547,2.0004-3.676,3.0833-4.158,8.582-1.0752,12.2574,11.2158,13.3784,27.6532,21.0517,45.0976,21.0517h.1461c26.1223-.0662,48.7117-16.9058,56.2107-41.9057.6691-2.2263.4305-4.5792-.672-6.6254Z" fill="#dedc00"></path>
</svg>
